<svg width="61" height="61" viewBox="0 0 61 61" fill="none" xmlns="http://www.w3.org/2000/svg">
<circle cx="30.5" cy="30.5" r="30.5" fill="#000323"/>
<circle cx="31" cy="31" r="27.5" fill="#000323" stroke="#B88013"/>
<path d="M42.6943 46.8937C42.1847 46.6422 41.6752 46.2399 41.3185 45.5862C40.9108 44.8822 40.4522 43.7759 39.9427 42.3175C38.2102 37.1379 35.8153 29.4943 32.9108 19.6882L30.9745 13.4023C30.9236 13.1509 30.7197 13 30.465 13H30.0573C29.8025 13 29.5987 13.1509 29.5478 13.4023L22.3631 40.1552C22.0064 41.5129 21.6497 42.6193 21.3439 43.4238C21.0382 44.2284 20.7325 44.8822 20.4268 45.3348C20.121 45.8376 19.7134 46.3405 19.2548 46.944L19.2038 46.9943C19.051 47.0948 19 47.2457 19 47.3966V47.4971C19 47.648 19.051 47.7988 19.2038 47.8994C19.3057 48 19.4586 48.0503 19.6115 48.0503C21.8025 47.7486 24.0446 47.8491 26.1847 48.0503C26.3376 48.0503 26.4904 48 26.5924 47.8994C26.6943 47.7988 26.7962 47.648 26.7962 47.4971V47.3966C26.7962 47.1451 26.6433 46.944 26.3885 46.8937C25.4204 46.6925 24.8089 45.9382 24.5541 44.6307C24.2484 43.1221 24.2484 41.3118 24.5541 39.1997C24.8599 37.0374 25.3185 34.6236 25.9809 32.1092L29.293 19.5374C30.414 23.2083 31.535 26.9799 32.6561 30.8017C34.3376 36.4339 35.4076 40.0043 35.7643 41.4124C36.121 42.7701 36.3248 43.7759 36.3248 44.4296C36.3248 45.0833 36.172 45.5862 35.8153 45.9885C35.4586 46.3908 34.8981 46.6925 34.0318 46.8937C33.7771 46.944 33.6242 47.1451 33.6242 47.3966V47.4971C33.6242 47.648 33.6752 47.7988 33.7771 47.8994C33.879 48 34.0318 48.0503 34.1338 48.0503C34.1338 48.0503 34.1338 48.0503 34.1847 48.0503C36.0191 47.9497 37.5478 47.8491 38.7707 47.8491C39.1274 47.8491 39.8408 47.8994 40.8599 47.9497L42.3885 48.0503C42.5414 48.0503 42.6943 48 42.7962 47.8994C42.8981 47.7988 42.949 47.648 42.949 47.4971V47.3966C43 47.1954 42.8471 46.9943 42.6943 46.8937Z" fill="#EBE4DD"/>
</svg>
