<svg xmlns="http://www.w3.org/2000/svg" viewBox="0 0 513.43 239.2"><defs><style>.cls-1{fill:#ebe4dd;}</style></defs><g id="Capa_2" data-name="Capa 2"><g id="Capa_1-2" data-name="Capa 1"><path class="cls-1" d="M110.73,232.69h-10.6L97.75,239H95.44l8.89-23.33h2.24L115.46,239h-2.31ZM110,230.8l-4-10.63c-.18-.5-.36-1.14-.53-1.78h-.07a16.6,16.6,0,0,1-.54,1.78l-4,10.63Z"/><path class="cls-1" d="M148,223.33c0,4.7-3.16,7.54-8.43,7.54h-5.37V239H132V215.69h7.33C144.77,215.69,148,218.53,148,223.33Zm-2.24,0c0-3.55-2.49-5.72-6.58-5.72h-5V229h5C143.35,229,145.8,226.82,145.8,223.33Z"/><path class="cls-1" d="M176.5,232.69H165.9L163.52,239h-2.31l8.89-23.33h2.24L181.23,239h-2.31Zm-.71-1.89-4-10.63c-.18-.5-.35-1.14-.53-1.78h-.07a16.6,16.6,0,0,1-.54,1.78l-4,10.63Z"/><path class="cls-1" d="M215.1,239.09a8.55,8.55,0,0,1-1.36.11c-6,0-4.37-9.43-10.84-9.43H200V239h-2.2V215.69h6.83c5.08,0,8.18,2.41,8.18,7.11,0,3.52-2.35,5.8-5.73,6.61,3.52,1.36,3.81,8,7.26,8a2.06,2.06,0,0,0,.57-.07ZM204.25,228c3.59,0,6.33-1.85,6.33-5.19s-2.28-5.19-6.05-5.19H200V228Z"/><path class="cls-1" d="M235.51,217.61h-7.86v-1.92h18v1.92h-7.89V239h-2.25Z"/><path class="cls-1" d="M284.64,239h-2.21l0-17c0-.92.07-2.17.1-2.35l-.1,0c-.11.28-.47,1.46-.75,2.1L274,239.09h-1.43l-7.86-17.54a9.61,9.61,0,0,1-.67-2l-.11,0c0,.22.11,1.5.11,2.35l0,17h-2.2V215.69h2.52l7.86,17.71a24.24,24.24,0,0,1,1,2.56h.07c.14-.5.68-1.78,1-2.56l7.79-17.71h2.46Z"/><path class="cls-1" d="M306,217.61v8.32h10.74v1.88H306v9.29H317.9V239H303.78V215.69H317.9v1.92Z"/><path class="cls-1" d="M353.4,239h-2.56l-11.07-16.93c-.74-1.21-1.88-3.17-2-3.45l-.15.07a22.86,22.86,0,0,1,.15,3.17l.07,17.14h-2.24V215.69h2.56l11.06,17c1.07,1.71,1.67,2.81,2,3.42l.18-.07c0-.4-.18-1.75-.18-3.21l0-17.17h2.24Z"/><path class="cls-1" d="M377.52,217.61h-7.86v-1.92h18v1.92h-7.89V239h-2.24Z"/><path class="cls-1" d="M410,217.43c-3.13,0-5.27,1.6-5.27,4.12,0,6,13.31,2.85,13.31,11.63,0,3.6-3.14,6-8,6a13,13,0,0,1-8.47-2.71l1.39-1.74a10.39,10.39,0,0,0,7.08,2.49c3.62,0,5.83-1.64,5.83-4.06,0-7-13.34-3.44-13.34-11.59,0-3.66,3.1-6.12,7.51-6.12,5.72,0,7.25,3.52,7.82,5.27l-2.13.53C415.33,220.06,413.9,217.43,410,217.43Z"/><path class="cls-1" d="M208.46.23H181.73a2.81,2.81,0,0,0-2.81,2.82v1a2.82,2.82,0,0,0,1.72,2.6c4.47,1.87,7.4,5.22,9,10.25,1.71,5.54,2.66,13,2.81,22.21V116.9a123.66,123.66,0,0,1-1,15.58,100.32,100.32,0,0,1-3.2,15.17,48.54,48.54,0,0,1-6.14,13.42A27.88,27.88,0,0,1,173,169.9a19.73,19.73,0,0,1-9.66,2.58,19,19,0,0,1-12-4c-5.46-4.31-9.62-11-12.37-19.9a90.76,90.76,0,0,1-4-28.31V36.46c0-21.66,4.1-28.39,7.53-30.22A2.83,2.83,0,0,0,144,3.75v-.7A2.82,2.82,0,0,0,141.16.23H112.44a2.82,2.82,0,0,0-2.82,2.82v.7A2.81,2.81,0,0,0,111,6.19a10.06,10.06,0,0,1,3.81,4A23.93,23.93,0,0,1,117.16,18c.53,3.59.85,6.48,1,8.59s.21,5.42.29,9.87V120.3a96.55,96.55,0,0,0,4.89,30.85c3.31,9.84,8.28,17.83,14.77,23.74,6.76,6.26,14.11,9.43,21.84,9.43,8.32,0,16-3.47,22.86-10.32,6.66-6.66,11.44-15.37,14.22-25.9.48-1.84.92-3.83,1.33-5.93s.73-3.89,1-5.51.51-3.83.68-6.33.28-4.2.4-5.43.2-3.39.24-6.32.06-4.68.06-5.55V39.16c0-23,4.92-30.41,9.05-32.56a2.84,2.84,0,0,0,1.51-2.5v-1A2.82,2.82,0,0,0,208.46.23Z"/><path class="cls-1" d="M308.63,5.74c1.32.74,2.43,2.37,3.29,4.85a31.85,31.85,0,0,1,1.78,7.75c.19,2.37.33,5.87.41,10.41l-.24,65.64a75,75,0,0,0,3.9,24.24,45.43,45.43,0,0,0,11.68,18.88c5.44,4.92,11.4,7.41,17.72,7.41,6.74,0,13.06-2.77,18.77-8.22a42.4,42.4,0,0,0,11.6-20.42,47.87,47.87,0,0,0,1.37-6.36q.48-3.21.78-5.71c.2-1.72.35-3.95.43-6.63s.11-4.62.11-5.89V31c0-17.72,3.68-23.49,6.77-25.21a2.82,2.82,0,0,0,1.44-2.46V2.81A2.81,2.81,0,0,0,385.63,0H365a2.81,2.81,0,0,0-2.81,2.81v.47a2.8,2.8,0,0,0,1.73,2.6,11.2,11.2,0,0,1,6.65,7.7c1.29,4.35,2,10.22,2.17,17.37V91.69a101.64,101.64,0,0,1-1.25,16.25,49.79,49.79,0,0,1-4.89,14.65,23.62,23.62,0,0,1-8.8,10,13.56,13.56,0,0,1-7.22,1.94,14.78,14.78,0,0,1-9-3c-4.16-3.38-7.37-8.55-9.53-15.37a67.12,67.12,0,0,1-3.15-21.72V28.73c0-17.58,3.37-21.92,5.38-22.94a2.82,2.82,0,0,0,1.54-2.51V2.81A2.81,2.81,0,0,0,333,0H310a2.81,2.81,0,0,0-2.81,2.81v.47A2.82,2.82,0,0,0,308.63,5.74Z"/><path class="cls-1" d="M392.75,148.09c.83-2.06,1.74-4.47,2.68-7.16a2.79,2.79,0,0,0-.35-2.56,2.83,2.83,0,0,0-2.3-1.19H390.9a2.8,2.8,0,0,0-2.55,1.64c-1.69,3.68-3.28,6.92-4.73,9.64a75.74,75.74,0,0,1-5.77,8.92,42.13,42.13,0,0,1-7.41,7.92,42.65,42.65,0,0,1-9.56,5.59,35,35,0,0,1-29.47-.38,45.16,45.16,0,0,1-14.08-10.1,123,123,0,0,1-11.69-14.62c-3.71-5.4-7.31-11-10.7-16.57s-7-11.06-10.51-15.91a59.36,59.36,0,0,0-12.49-12.8,36.58,36.58,0,0,0-5.2-3.24,33.12,33.12,0,0,0,6.4-3.5c5.71-4,10.34-9.74,13.71-17.13,3.38-6.85,5.1-15.75,5.1-26.46,0-16.35-3.8-28.86-11.22-37.11C273.4,4.4,263,0,249.74,0H215.15a2.81,2.81,0,0,0-2.82,2.81v.47a2.81,2.81,0,0,0,1.61,2.54c2.29,1.09,4.16,4.23,5.37,9A103.8,103.8,0,0,1,221.24,36V147.62a106.26,106.26,0,0,1-1.9,21.47c-1.17,4.61-3,7.44-5.27,8.41a2.81,2.81,0,0,0-1.74,2.6v.7a2.81,2.81,0,0,0,2.82,2.81h28.61a2.81,2.81,0,0,0,2.81-2.81v-.7a2.82,2.82,0,0,0-1.68-2.58c-2.47-1.09-4.21-4-5.21-8.68-1.34-5.21-2-12.35-2-21.22V99.78h.93a28.3,28.3,0,0,1,13.92,5.29,50.54,50.54,0,0,1,12,12.11c3.57,5,7.2,10.6,10.79,16.58s7.48,12.18,11.43,18.16a135,135,0,0,0,13,16.77,57.43,57.43,0,0,0,17.13,12.76,51.57,51.57,0,0,0,21.95,5.21h1A57.6,57.6,0,0,0,353.9,185a52.9,52.9,0,0,0,12.26-4.59,46.52,46.52,0,0,0,9.79-7.17,63.07,63.07,0,0,0,7.37-8.11,69.72,69.72,0,0,0,5.5-8.86C390.6,152.9,391.89,150.22,392.75,148.09ZM237.66,8.74l8.44-.18c2.57,0,4.49,0,5.68.11s2.85.3,5,.67a13.1,13.1,0,0,1,4.87,1.76,15.22,15.22,0,0,1,3.72,3.48c5.36,7.2,8.57,16.35,9.53,27.16a100.67,100.67,0,0,1-.57,21.91c-1,7.18-2.82,13.23-5.53,18-3.72,6.68-9.05,9.92-16.3,9.92H237.66Z"/><path class="cls-1" d="M511.7,178.2c-2.38-1-4.32-3.93-5.77-8.75a94.88,94.88,0,0,1-3.29-21.3L496,36.52C494.52,13.89,498.77,8,501.43,6.57a2.83,2.83,0,0,0,1.45-2.47V3.28A2.81,2.81,0,0,0,500.07.47H481.54a2.82,2.82,0,0,0-2.77,2.3L452.84,142.26,422.62,2.69A2.81,2.81,0,0,0,419.87.47H402a2.81,2.81,0,0,0-2.81,2.81V4.1a2.8,2.8,0,0,0,1.54,2.51c5.77,2.92,8.4,13,7.61,29.22l-5.75,99.49c-.45,12.48-2,22.79-4.65,30.61-3.2,9.32-6.21,11.67-7.72,12.24a2.82,2.82,0,0,0-1.82,2.63v.7a2.82,2.82,0,0,0,2.82,2.82H421a2.81,2.81,0,0,0,2.81-2.82v-.7a2.81,2.81,0,0,0-1.74-2.6c-7.56-3.1-11.39-14.34-11.39-33.4,0-.3,0-1.45.12-3.47s.11-4.05.11-5.83l4.85-88.38,29.69,135a2.82,2.82,0,0,0,2.75,2.21h3.05a2.82,2.82,0,0,0,2.77-2.31L479.87,41.72l6.36,106.74c.46,9,.23,16.24-.66,21.54-.77,4.4-2.35,7.17-4.72,8.24a2.8,2.8,0,0,0-1.65,2.56v.7a2.81,2.81,0,0,0,2.81,2.82h28.61a2.81,2.81,0,0,0,2.81-2.82v-.7A2.81,2.81,0,0,0,511.7,178.2Z"/><path class="cls-1" d="M122.61,178.59a15.88,15.88,0,0,1-7.11-6.85c-2.16-3.69-4.57-9.44-7.15-17.06C99.44,127.3,87.19,87.26,72,35.68l-9.81-33a2.81,2.81,0,0,0-2.69-2H57.24a2.82,2.82,0,0,0-2.72,2.1L17.3,143.25a160,160,0,0,1-5.21,17.19,57.52,57.52,0,0,1-4.85,10.11,84.1,84.1,0,0,1-6.11,8.32l-.31.31a2.82,2.82,0,0,0-.82,2v.4a2.81,2.81,0,0,0,3.18,2.79,146.1,146.1,0,0,1,34,0,2.76,2.76,0,0,0,2.18-.71,2.81,2.81,0,0,0,.93-2.09v-.4A2.83,2.83,0,0,0,38,178.41c-5-1.08-8.07-5-9.44-12-1.54-7.8-1.56-17.42-.07-28.6A319,319,0,0,1,36,100.63L53.2,34.94C58.89,54.17,64.71,74,70.55,94.11c8.75,29.56,14.2,48.26,16.2,55.58,1.92,7.06,2.9,12.4,2.9,15.86s-.82,6.11-2.52,8.07-4.85,3.65-9.21,4.83a2.81,2.81,0,0,0-2.08,2.71v.4a2.83,2.83,0,0,0,2.82,2.82h.19c9.5-.66,17.52-1,23.82-1,1.93,0,5.56.2,10.86.59l7.8.4a2.82,2.82,0,0,0,2.09-.77,2.79,2.79,0,0,0,.87-2v-.4A2.81,2.81,0,0,0,122.61,178.59Z"/></g></g></svg>