<svg xmlns="http://www.w3.org/2000/svg" viewBox="0 0 106.07 46.31"><g id="Capa_2" data-name="Capa 2"><g id="Capa_1-2" data-name="Capa 1"><polygon points="6.67 31.46 6.67 31.46 0 7.32 5.35 7.32 11.53 29.9 17.76 7.32 23.06 7.32 16.45 31.46 6.67 31.46"/><path d="M72.49,21.28a5.93,5.93,0,0,1-.6,2.75,4.36,4.36,0,0,1-1.68,1.82,4.73,4.73,0,0,1-2.52.65,4.54,4.54,0,0,1-3.48-1.41,5.35,5.35,0,0,1-1.32-3.81v-14H57.14V22.48a9.64,9.64,0,0,0,1.34,5.31A9,9,0,0,0,66,32a11.47,11.47,0,0,0,2.2-.19,6,6,0,0,0,1.54-.53l2.78-3v3.21h5.76V7.25H72.49Z"/><path d="M98.73,25.16a5.53,5.53,0,0,1-1.94,1.2,6.63,6.63,0,0,1-2.18.38,7,7,0,0,1-3.41-.93,7.64,7.64,0,0,1-2.78-2.73,8.19,8.19,0,0,1-1.11-4.38,7.82,7.82,0,0,1,.51-3,6,6,0,0,1,1.36-2.09,5.64,5.64,0,0,1,1.92-1.22A6.32,6.32,0,0,1,93.21,12a7.15,7.15,0,0,1,3.48.93,7.62,7.62,0,0,1,2.83,2.76,8.11,8.11,0,0,1,1.13,4.4,7.44,7.44,0,0,1-.53,3,5.89,5.89,0,0,1-1.39,2.06m1.59-17.91h0V9.52a7.32,7.32,0,0,0-1-.86,9.53,9.53,0,0,0-2.74-1.38,10.08,10.08,0,0,0-3.21-.51A12.31,12.31,0,0,0,91.15,7a6,6,0,0,0-1.68.58L86,11.18a19.09,19.09,0,0,0-2.52,3.21,10.91,10.91,0,0,0-1.32,3,11.18,11.18,0,0,0-.39,2.9,11.37,11.37,0,0,0,1.56,5.86A12,12,0,0,0,87.6,30.4,11.64,11.64,0,0,0,93.69,32a14.31,14.31,0,0,0,2.24-.19,5.7,5.7,0,0,0,1.65-.48l2.74-2.85v3h5.75V7.25Z"/><path d="M23.06,31.7h7.1L36.21,7.56H31.38c-4.74,17.52-4.74,17.52-5.3,19.65-1,3.93-3,4.49-3,4.49"/><polygon points="31.51 5 31.51 5 36.33 5 36.33 0 31.51 0 31.51 5"/><polygon points="69.57 5 69.57 5 63.63 5 63.63 0 71.76 0 71.76 2.81 69.57 5"/><polygon points="49.26 0 49.26 0 43.5 0 43.5 7.33 40.34 7.33 39.05 12.54 43.5 12.54 43.5 31.46 49.26 31.46 49.26 12.54 54.3 12.54 54.3 7.33 49.26 7.33 49.26 0"/><polygon points="86.21 46.22 86.21 46.22 86.21 39.73 87.28 39.73 87.28 45.34 90.11 45.34 90.11 46.22 86.21 46.22"/><path d="M79.61,43.18H82L80.79,39.6Zm-2,2.71h0l2.15-6.5h2L84,45.89H82.86l-.6-1.83H79.33l-.6,1.83Z"/><polygon points="74.31 45.68 74.31 45.68 75.38 45.68 75.38 39.19 74.31 39.19 74.31 45.68"/><path d="M68.83,45.77a3.12,3.12,0,0,1-3.08-3.34,3.13,3.13,0,0,1,3-3.34,2.83,2.83,0,0,1,2.91,2.46h-1.1A1.7,1.7,0,0,0,68.84,40c-1.19,0-2,1-2,2.46s.81,2.47,2,2.47a1.72,1.72,0,0,0,1.76-1.57h1.1a2.85,2.85,0,0,1-2.93,2.44"/><polygon points="57.68 45.68 57.68 45.68 57.68 39.19 59.8 39.19 62.11 45.47 62.11 39.19 63.17 39.19 63.17 45.68 61.06 45.68 58.75 39.39 58.75 45.68 57.68 45.68"/><polygon points="51.03 45.68 51.03 45.68 51.03 39.19 54.9 39.19 54.9 40.06 52.09 40.06 52.09 41.91 54.82 41.91 54.82 42.78 52.09 42.78 52.09 44.8 54.98 44.8 54.98 45.68 51.03 45.68"/><path d="M44,40.06h0V44.8h.89a2.12,2.12,0,0,0,2.28-2.37,2.12,2.12,0,0,0-2.28-2.37Zm-1.06,5.62h0V39.19h2a3.25,3.25,0,1,1,0,6.49Z"/><polygon points="39 45.68 39 45.68 40.06 45.68 40.06 39.19 39 39.19 39 45.68"/><path d="M33.78,46.31A2.63,2.63,0,0,1,31,43.93h1.11a1.63,1.63,0,0,0,1.67,1.51c.82,0,1.44-.36,1.44-1s-.4-.81-1.24-1l-.94-.22c-1.27-.3-1.91-.89-1.91-1.79,0-1.1,1.08-1.83,2.39-1.83,1.66,0,2.51.9,2.62,2h-1.1a1.35,1.35,0,0,0-1.5-1.14c-.75,0-1.28.32-1.28.87s.33.65,1.29.88l.94.22c1.23.28,1.84.92,1.84,2s-1.06,1.88-2.56,1.88"/><polygon points="24.89 46.22 24.89 46.22 24.89 39.73 28.76 39.73 28.76 40.6 25.95 40.6 25.95 42.44 28.68 42.44 28.68 43.32 25.95 43.32 25.95 45.34 28.84 45.34 28.84 46.22 24.89 46.22"/><path d="M18.76,40.6h0v2.11h1.1c.91,0,1.4-.37,1.4-1.06s-.49-1-1.4-1ZM17.7,46.22h0v-6.5h2.06c1.63,0,2.61.7,2.61,1.93A1.75,1.75,0,0,1,21,43.41l1.49,2.81H21.31L19.9,43.58H18.76v2.64Z"/></g></g></svg>