<svg xmlns="http://www.w3.org/2000/svg" viewBox="0 0 564.02 110.42"><defs><style>.cls-1,.cls-2{fill:#fff;}.cls-2{stroke:#fff;stroke-miterlimit:10;}</style></defs><g id="Capa_2" data-name="Capa 2"><g id="Capa_1-2" data-name="Capa 1"><path class="cls-1" d="M77.49,78l27,28.07H78.61L27,53.26H68.5a12.35,12.35,0,0,0,0-24.7H27L0,.48H73s31.45,2.25,31.45,38.19S77.49,78,77.49,78Z"/><path class="cls-1" d="M131.16,78,104.21,106H130L181.7,53.26H140.15a12.35,12.35,0,0,1,0-24.7H181.7l27-28.08h-73s-31.45,2.25-31.45,38.19S131.16,78,131.16,78Z"/><path class="cls-1" d="M276.15.75c25.26.22,37.9,18.69,37.9,37.17s-12.64,36.83-37.9,37.15H254.28V.75ZM259.48,69.87h16.14c21.87,0,32.8-15.93,32.8-31.95S297.49,5.85,275.62,5.85H259.48Z"/><path class="cls-1" d="M389.32,70.08v5H342.6V.75h5.2V70.08Z"/><path class="cls-1" d="M413.67,0h5.25V46.32c0,17,12.86,25.62,25.62,25.62s25.73-8.58,25.73-25.62V0h5.15V46.32c0,20.79-15.44,31.19-30.88,31.19-15.22,0-30.55-10.93-30.87-31.19Z"/><path class="cls-1" d="M506.56,75.05h-6.43L529,37.53,500.13,0h6.43l25.51,33.35L557.7,0H564L535.29,37.53,564,75.05H557.7L532.07,41.71Z"/><path class="cls-1" d="M355.62,97.28A8.43,8.43,0,0,0,350,95.1c-2.19,0-4.2,1.08-4.2,2.86,0,1.94,2.37,2.77,4.85,3.63,2.79,1,5.68,2,5.68,4.73s-2.89,4.06-5.75,4.06-5.52-1.29-6.71-2.87l.88-.67a7.85,7.85,0,0,0,5.83,2.45c2.32,0,4.67-1,4.67-3s-2.42-2.82-4.89-3.68c-2.78-1-5.66-2-5.66-4.66,0-2.5,2.57-3.94,5.32-3.94a9.44,9.44,0,0,1,6.4,2.57Z"/><path class="cls-1" d="M372.58,110.42a8.23,8.23,0,0,1,0-16.45,8,8,0,0,1,8.11,8.23A7.85,7.85,0,0,1,372.58,110.42Zm0-15.39a7.17,7.17,0,1,0,7,7.17A6.8,6.8,0,0,0,372.58,95Z"/><path class="cls-1" d="M400.19,109v1.06h-9.91V94.31h1.1V109Z"/><path class="cls-1" d="M433.32,94.31h.92l11.81,13.93V94.31h1.1v15.77h-.94L434.42,96.16v13.92h-1.1Z"/><path class="cls-1" d="M463.88,94.08h.54l7.62,16h-1.2l-1.51-3.2H459l-1.51,3.2h-1.19Zm-4.39,11.77h9.33l-4.67-9.78Z"/><line class="cls-2" x1="254.54" y1="100.85" x2="327.82" y2="100.85"/><line class="cls-2" x1="490.74" y1="100.85" x2="564.02" y2="100.85"/><path class="cls-1" d="M408.37,94.37h1.06v9.35a5.19,5.19,0,0,0,10.38,0V94.37h1v9.35a6,6,0,0,1-6.24,6.3,6.14,6.14,0,0,1-6.24-6.3Z"/></g></g></svg>