<svg xmlns="http://www.w3.org/2000/svg" viewBox="0 0 109.87 95.97"><defs><style>.cls-1{fill:#292b2d;}.cls-2{fill:#113b4f;stroke:#292b2d;stroke-miterlimit:10;}</style></defs><g id="Capa_2" data-name="Capa 2"><g id="Capa_1-2" data-name="Capa 1"><path class="cls-1" d="M40.55,40.41,54.6,55.05H41.13L14.19,27.53H35.86a6.45,6.45,0,0,0,0-12.89H14.19L.13,0H38.2S54.6,1.17,54.6,19.91,40.55,40.41,40.55,40.41Z"/><path class="cls-1" d="M68.54,40.41,54.48,55.05H68l27-27.52H73.23a6.45,6.45,0,1,1,0-12.89H94.9L109,0H70.88s-16.4,1.17-16.4,19.91S68.54,40.41,68.54,40.41Z"/><path class="cls-1" d="M23,63.78c6,0,9,4.41,9,8.78s-3,8.71-9,8.78H17.86V63.78ZM19.09,80.11h3.82a7.57,7.57,0,1,0,0-15.13H19.09Z"/><path class="cls-1" d="M49.78,80.16v1.18h-11V63.78H40V80.16Z"/><path class="cls-1" d="M55.54,63.6h1.24V74.55a6.07,6.07,0,0,0,12.14,0V63.6h1.22V74.55a7,7,0,0,1-7.3,7.37,7.19,7.19,0,0,1-7.3-7.37Z"/><path class="cls-1" d="M77.5,81.34H76l6.81-8.87L76,63.6H77.5l6,7.88,6.06-7.88h1.49l-6.79,8.87,6.79,8.87H89.59l-6.06-7.88Z"/><path class="cls-1" d="M35.89,91.31a3,3,0,0,0-2-.78c-.77,0-1.48.39-1.48,1s.84,1,1.71,1.29,2,.71,2,1.68-1,1.44-2,1.44a3.17,3.17,0,0,1-2.38-1L32,94.7a2.79,2.79,0,0,0,2.07.87c.82,0,1.66-.37,1.66-1.06s-.86-1-1.74-1.31-2-.69-2-1.65.92-1.4,1.89-1.4a3.34,3.34,0,0,1,2.27.91Z"/><path class="cls-1" d="M41.91,96a2.92,2.92,0,0,1,0-5.84,2.85,2.85,0,0,1,2.88,2.92A2.78,2.78,0,0,1,41.91,96Zm0-5.46a2.55,2.55,0,1,0,2.48,2.54A2.41,2.41,0,0,0,41.91,90.51Z"/><path class="cls-1" d="M51.71,95.48v.37H48.19v-5.6h.39v5.23Z"/><path class="cls-1" d="M63.47,90.25h.33l4.19,5v-5h.39v5.6H68l-4.18-4.94v4.94h-.39Z"/><path class="cls-1" d="M74.32,90.17h.19l2.71,5.68h-.43l-.53-1.13H72.58L72,95.85h-.42Zm-1.56,4.18h3.31l-1.65-3.47Z"/><line class="cls-2" y1="92.57" x2="26.01" y2="92.57"/><line class="cls-2" x1="83.86" y1="92.57" x2="109.87" y2="92.57"/><path class="cls-1" d="M55.1,90.3h.38v3.32a1.84,1.84,0,1,0,3.68,0V90.3h.37v3.32a2.14,2.14,0,0,1-2.21,2.24,2.2,2.2,0,0,1-2.22-2.24Z"/></g></g></svg>