<svg xmlns="http://www.w3.org/2000/svg" viewBox="0 0 232.25 202.87"><defs><style>.cls-1,.cls-2{fill:#d1cfc6;}.cls-2{stroke:#c4c1a8;stroke-miterlimit:10;}</style></defs><g id="Capa_2" data-name="Capa 2"><g id="Capa_1-2" data-name="Capa 1"><path class="cls-1" d="M85.71,85.42l29.71,31H86.94L30,58.19H75.8A13.62,13.62,0,1,0,75.8,31H30L.28,0H80.75s34.67,2.48,34.67,42.09S85.71,85.42,85.71,85.42Z"/><path class="cls-1" d="M144.88,85.42l-29.71,31h28.48l56.94-58.18h-45.8a13.62,13.62,0,0,1,0-27.24h45.8L230.31,0H149.84s-34.67,2.48-34.67,42.09S144.88,85.42,144.88,85.42Z"/><path class="cls-1" d="M48.69,134.81c12.63.11,18.94,9.34,18.94,18.57S61.32,171.79,48.69,172H37.76V134.81Zm-8.33,34.54h8.07c10.92,0,16.39-8,16.39-16s-5.47-16-16.39-16H40.36Z"/><path class="cls-1" d="M105.24,169.45V172H81.9V134.81h2.6v34.64Z"/><path class="cls-1" d="M117.4,134.44H120v23.14c0,8.51,6.43,12.8,12.8,12.8s12.86-4.29,12.86-12.8V134.44h2.57v23.14c0,10.39-7.71,15.59-15.43,15.59s-15.26-5.47-15.43-15.59Z"/><path class="cls-1" d="M163.82,171.94h-3.21L175,153.19l-14.41-18.75h3.21l12.75,16.66,12.8-16.66h3.16l-14.35,18.75,14.35,18.75h-3.16l-12.8-16.66Z"/><path class="cls-1" d="M75.86,193a6.37,6.37,0,0,0-4.19-1.64c-1.64,0-3.15.81-3.15,2.15s1.78,2.08,3.64,2.72c2.09.75,4.26,1.51,4.26,3.55s-2.17,3.05-4.31,3.05a6.74,6.74,0,0,1-5-2.15l.66-.51A5.89,5.89,0,0,0,72.11,202c1.74,0,3.5-.77,3.5-2.24s-1.81-2.12-3.67-2.76c-2.08-.73-4.25-1.47-4.25-3.5s1.93-3,4-3a7.1,7.1,0,0,1,4.81,1.93Z"/><path class="cls-1" d="M88.58,202.87a6.17,6.17,0,0,1,0-12.34,6,6,0,0,1,6.09,6.17A5.89,5.89,0,0,1,88.58,202.87Zm0-11.55a5.38,5.38,0,1,0,5.25,5.38A5.1,5.1,0,0,0,88.58,191.32Z"/><path class="cls-1" d="M109.31,201.82v.8h-7.44V190.78h.83v11Z"/><path class="cls-1" d="M134.16,190.78h.7l8.86,10.45V190.78h.83v11.84h-.71L135,192.17v10.45h-.83Z"/><path class="cls-1" d="M157.1,190.61h.41l5.71,12h-.89l-1.14-2.4h-7.77l-1.14,2.4h-.89Zm-3.29,8.83h7l-3.5-7.34Z"/><line class="cls-2" y1="195.69" x2="54.99" y2="195.69"/><line class="cls-2" x1="177.26" y1="195.69" x2="232.25" y2="195.69"/><path class="cls-1" d="M116.48,190.88h.8v7a3.89,3.89,0,1,0,7.78,0v-7h.78v7a4.52,4.52,0,0,1-4.68,4.73,4.61,4.61,0,0,1-4.68-4.73Z"/></g></g></svg>